<svg width="1440" height="913" viewBox="0 0 1440 913" fill="none" xmlns="http://www.w3.org/2000/svg">
<rect width="1440" height="913" fill="url(#paint0_linear_161_54)"/>
<mask id="mask0_161_54" style="mask-type:alpha" maskUnits="userSpaceOnUse" x="0" y="0" width="1440" height="913">
<rect width="1440" height="913" fill="#111827"/>
</mask>
<g mask="url(#mask0_161_54)">
<g filter="url(#filter0_f_161_54)">
<path fill-rule="evenodd" clip-rule="evenodd" d="M659.27 1039.14C596.691 1062.6 525.181 1062.69 454.129 1061.74C335.916 1060.16 202.171 1085.48 110.274 1031.8C12.5655 974.733 -38.3641 873.759 -18.7601 785.522C0.564069 698.544 95.4419 620.631 209.192 586.573C310.555 556.225 423.77 644.245 529.086 621.494C653.701 594.574 715.745 403.343 826.857 453.142C946.359 506.702 774.844 647.441 805.379 745.326C821.498 796.995 963.044 807.104 953.591 859.401C944.019 912.355 826.249 908.861 769.563 943.478C724.481 971.009 711.87 1019.42 659.27 1039.14Z" fill="#253127"/>
</g>
</g>
<defs>
<filter id="filter0_f_161_54" x="-721.094" y="-900.02" width="3099.67" height="2485.25" filterUnits="userSpaceOnUse" color-interpolation-filters="sRGB">
<feFlood flood-opacity="0" result="BackgroundImageFix"/>
<feBlend mode="normal" in="SourceGraphic" in2="BackgroundImageFix" result="shape"/>
<feGaussianBlur stdDeviation="200" result="effect1_foregroundBlur_161_54"/>
</filter>
<linearGradient id="paint0_linear_161_54" x1="720" y1="0" x2="720" y2="913" gradientUnits="userSpaceOnUse">
<stop stop-color="#273729"/>
<stop stop-color="#68B776" stop-opacity="0.23"/>
<stop offset="0.572917" stop-color="#263629" stop-opacity="0.729167"/>
<stop offset="0.728125" stop-color="#2E6837" stop-opacity="0.27"/>
<stop offset="0.838542" stop-color="#253127"/>
<stop offset="1" stop-color="#253127" stop-opacity="0"/>
</linearGradient>
</defs>
</svg>
