<svg width="1440" height="1014" viewBox="0 0 1440 1014" fill="none" xmlns="http://www.w3.org/2000/svg">
<rect width="1440" height="1014" fill="url(#paint0_linear_10_278)"/>
<mask id="mask0_10_278" style="mask-type:alpha" maskUnits="userSpaceOnUse" x="0" y="0" width="1440" height="1014">
<rect width="1440" height="1014" fill="#111827"/>
</mask>
<g mask="url(#mask0_10_278)">
<g filter="url(#filter0_f_10_278)">
<path fill-rule="evenodd" clip-rule="evenodd" d="M659.27 1154.09C596.691 1180.15 525.181 1180.24 454.129 1179.19C335.916 1177.44 202.171 1205.56 110.274 1145.95C12.5656 1082.56 -38.364 970.418 -18.7601 872.42C0.564123 775.82 95.4419 689.288 209.192 651.463C310.555 617.757 423.77 715.514 529.086 690.247C653.701 660.349 715.745 447.962 826.857 503.27C946.359 562.755 774.844 719.063 805.379 827.777C821.498 885.162 963.044 896.389 953.591 954.471C944.019 1013.28 826.249 1009.4 769.563 1047.85C724.481 1078.43 711.87 1132.19 659.27 1154.09Z" fill="#253127"/>
</g>
</g>
<defs>
<filter id="filter0_f_10_278" x="-721.094" y="-955.335" width="3099.67" height="2671.68" filterUnits="userSpaceOnUse" color-interpolation-filters="sRGB">
<feFlood flood-opacity="0" result="BackgroundImageFix"/>
<feBlend mode="normal" in="SourceGraphic" in2="BackgroundImageFix" result="shape"/>
<feGaussianBlur stdDeviation="200" result="effect1_foregroundBlur_10_278"/>
</filter>
<linearGradient id="paint0_linear_10_278" x1="720" y1="0" x2="720" y2="1014" gradientUnits="userSpaceOnUse">
<stop stop-color="#273729"/>
<stop stop-color="#68B776" stop-opacity="0.23"/>
<stop offset="0.572917" stop-color="#263629" stop-opacity="0.729167"/>
<stop offset="0.728125" stop-color="#2E6837" stop-opacity="0.27"/>
<stop offset="0.838542" stop-color="#253127"/>
<stop offset="1" stop-color="#253127" stop-opacity="0"/>
</linearGradient>
</defs>
</svg>
