<svg width="56" height="59" viewBox="0 0 56 59" fill="none" xmlns="http://www.w3.org/2000/svg">
<path d="M18.9257 23.4156C18.3132 22.7704 17.4954 22.3874 16.6304 22.3406C15.7654 22.2939 14.9146 22.5867 14.2427 23.1624L13.9767 23.4156L9.02533 28.6297C6.42316 31.355 4.94046 35.0476 4.89629 38.913C4.85211 42.7784 6.24998 46.5076 8.78911 49.2981C11.3282 52.0886 14.8057 53.7173 18.4731 53.8339C22.1405 53.9505 25.7048 52.5455 28.399 49.9214L28.826 49.4912L33.775 44.2746C34.407 43.6057 34.7715 42.7069 34.7934 41.7634C34.8153 40.8198 34.493 39.9033 33.8928 39.2026C33.2927 38.5019 32.4603 38.0704 31.5672 37.9968C30.6741 37.9233 29.7882 38.2133 29.092 38.8072L28.826 39.0605L23.8747 44.2746C22.5885 45.6196 20.8575 46.3867 19.0455 46.4145C17.2336 46.4424 15.482 45.7289 14.1591 44.424C12.8363 43.1191 12.0453 41.3246 11.9525 39.4179C11.8597 37.5112 12.4724 35.6409 13.6617 34.2003L13.9767 33.8463L18.9257 28.6297C19.5818 27.9382 19.9504 27.0005 19.9504 26.0227C19.9504 25.0449 19.5818 24.1071 18.9257 23.4156ZM35.4247 21.6776C34.8122 21.0324 33.9944 20.6493 33.1294 20.6026C32.2644 20.5558 31.4136 20.8486 30.7417 21.4244L30.4757 21.6776L20.5753 32.1083C19.9389 32.7764 19.5707 33.6768 19.547 34.6231C19.5232 35.5694 19.8458 36.489 20.4479 37.1916C21.05 37.8942 21.8855 38.3259 22.7814 38.3974C23.6773 38.4689 24.565 38.1747 25.2607 37.5756L25.5267 37.3224L35.4247 26.8917C36.0808 26.2002 36.4494 25.2624 36.4494 24.2846C36.4494 23.3069 36.0808 22.3691 35.4247 21.6776ZM46.9747 9.50883C44.4215 6.8193 40.9807 5.27298 37.371 5.19281C33.7614 5.11265 30.2619 6.50483 27.6033 9.07862L27.174 9.50883L22.2273 14.7254C21.5953 15.3943 21.2309 16.2931 21.2089 17.2366C21.187 18.1802 21.5093 19.0967 22.1095 19.7974C22.7097 20.498 23.542 20.9296 24.4351 21.0032C25.3282 21.0767 26.2141 20.7867 26.9103 20.1927L27.1763 19.9395L32.123 14.7254C33.4075 13.3724 35.1409 12.5984 36.957 12.5669C38.7731 12.5354 40.5297 13.2489 41.8558 14.5567C43.1819 15.8644 43.9735 17.664 44.0636 19.5753C44.1536 21.4867 43.535 23.36 42.3383 24.7997L42.0233 25.1537L37.0767 30.3702C36.4447 31.0392 36.0802 31.9379 36.0583 32.8815C36.0363 33.825 36.3587 34.7415 36.9588 35.4422C37.559 36.1429 38.3913 36.5744 39.2845 36.648C40.1776 36.7215 41.0634 36.4315 41.7597 35.8376L42.0233 35.5844L46.9747 30.3702C48.2749 29.0006 49.3064 27.3744 50.0101 25.5847C50.7138 23.795 51.076 21.8767 51.076 19.9395C51.076 18.0023 50.7138 16.0841 50.0101 14.2944C49.3064 12.5047 48.2749 10.8785 46.9747 9.50883Z" fill="#09244B"/>
</svg>
